<svg xmlns="http://www.w3.org/2000/svg" width="1024" height="1024" viewBox="0 0 1024 1024">
<g>
<path d="M 735.40 381.05 C733.14,381.57 638.87,381.95 510.50,381.94 C329.30,381.92 288.96,381.68 286.50,380.60 C279.33,377.43 277.96,372.09 279.95,354.98 C281.46,342.01 283.83,334.28 290.51,320.50 C300.87,299.13 316.35,278.22 335.91,259.19 C375.36,220.78 427.80,196.41 484.91,189.93 C500.62,188.15 537.37,189.22 552.50,191.90 C607.51,201.64 653.16,225.07 691.02,262.98 C716.54,288.54 734.95,317.65 741.63,343.02 C742.79,347.44 743.36,353.69 743.42,362.71 C743.51,377.75 742.82,379.33 735.40,381.05 ZM 322.84 361.11 C323.93,362.86 324.69,363.09 327.33,362.44 C329.07,362.01 418.58,361.61 526.24,361.55 C703.23,361.46 722.14,361.29 723.56,359.86 C725.64,357.79 726.22,350.17 724.56,347.00 C723.83,345.62 722.06,342.25 720.63,339.50 C719.19,336.75 718.00,333.60 717.99,332.50 C717.97,330.11 716.63,327.78 715.39,327.96 C714.90,328.04 714.22,326.71 713.87,325.01 C713.52,323.31 712.49,321.09 711.57,320.08 C709.99,318.33 708.38,315.59 703.61,306.48 C701.47,302.40 697.39,297.35 693.20,293.61 C691.93,292.47 689.34,289.21 687.45,286.36 C685.55,283.50 683.65,281.02 683.22,280.83 C682.78,280.65 681.40,279.03 680.14,277.23 C678.87,275.44 676.55,273.30 674.96,272.48 C672.38,271.14 670.48,269.64 665.14,264.72 C664.24,263.89 662.52,262.04 661.33,260.60 C660.01,259.03 658.13,258.00 656.55,258.00 C654.77,258.00 653.61,257.24 652.85,255.57 C652.24,254.23 650.45,252.60 648.87,251.95 C647.29,251.29 646.00,250.42 646.00,250.00 C646.00,249.58 644.71,248.71 643.13,248.05 C641.55,247.40 639.76,245.77 639.15,244.43 C638.35,242.67 637.24,242.00 635.14,242.00 C633.21,242.00 631.72,241.23 630.72,239.69 C629.89,238.43 627.25,236.76 624.85,235.99 C622.46,235.22 617.22,232.89 613.20,230.80 C609.19,228.71 604.89,227.00 603.65,227.00 C602.40,227.00 599.87,225.88 598.02,224.51 C594.65,222.03 592.44,221.40 584.05,220.57 C581.01,220.27 579.09,219.44 577.97,217.96 C576.66,216.22 574.98,215.70 569.42,215.29 C565.61,215.01 561.45,214.11 560.16,213.30 C557.47,211.62 557.35,211.59 542.00,209.98 C535.67,209.31 529.15,208.45 527.50,208.06 C519.38,206.16 478.53,208.12 468.00,210.93 C466.08,211.44 460.90,212.84 456.50,214.03 C452.10,215.22 446.48,216.51 444.00,216.89 C441.52,217.27 437.25,218.77 434.50,220.21 C431.75,221.65 428.30,223.10 426.83,223.42 C425.36,223.74 422.86,225.09 421.28,226.42 C419.70,227.74 416.80,229.13 414.83,229.50 C411.15,230.19 401.20,236.56 401.88,237.79 C402.08,238.17 399.38,239.98 395.88,241.81 C390.78,244.47 389.14,244.91 387.71,244.03 C385.38,242.60 383.69,243.62 384.88,245.75 C385.61,247.05 383.45,249.08 373.64,256.33 C359.19,267.00 337.59,288.36 327.44,302.01 C312.28,322.39 302.08,344.15 302.01,356.25 L 302.00 359.00 L 311.76 359.00 C320.60,359.00 321.64,359.20 322.84,361.11 ZM 696.98 667.44 C691.29,668.78 668.80,668.96 512.00,668.90 C357.75,668.85 332.55,668.63 326.50,667.35 C310.65,663.97 293.46,650.74 286.41,636.50 C280.49,624.53 279.81,620.73 279.28,596.38 L 278.79 574.27 L 281.81 570.88 L 284.84 567.50 L 509.32 567.24 C687.38,567.04 734.60,567.25 737.65,568.24 C740.39,569.14 742.03,570.51 743.33,573.00 C744.99,576.17 745.11,578.36 744.57,596.50 C744.23,608.19 743.40,618.90 742.58,622.27 C740.80,629.57 736.13,639.59 731.90,645.18 C724.14,655.45 710.22,664.32 696.98,667.44 ZM 419.40 499.12 C411.38,503.07 401.07,503.88 393.00,501.19 C385.26,498.61 383.39,497.46 375.72,490.60 C367.07,482.86 365.57,482.07 359.50,482.06 C352.85,482.04 347.58,484.65 341.50,490.97 C338.75,493.83 334.25,497.37 331.50,498.83 C326.63,501.43 325.97,501.51 306.35,501.82 L 286.19 502.15 L 282.85 499.16 L 279.50 496.17 L 279.20 470.77 L 278.91 445.38 L 274.70 443.86 C269.48,441.96 266.00,437.18 266.00,431.91 C266.00,427.14 269.07,423.41 274.50,421.56 C278.45,420.21 278.51,420.13 279.02,414.35 C279.60,407.90 281.05,404.58 283.96,403.02 C285.14,402.39 297.14,402.00 315.25,402.00 C347.46,402.00 351.26,402.51 358.60,407.82 C360.75,409.39 364.75,413.70 367.48,417.42 C374.00,426.30 379.33,429.51 387.50,429.45 C395.51,429.40 398.74,427.50 406.16,418.47 C412.88,410.28 418.62,405.95 426.03,403.49 C429.98,402.18 434.60,401.94 451.21,402.19 L 471.55 402.50 L 478.34 405.84 C483.84,408.55 486.30,410.61 491.27,416.67 C500.53,427.95 508.40,431.57 518.04,429.00 C521.73,428.01 524.22,426.03 532.50,417.44 C546.91,402.50 546.91,402.50 574.50,402.50 C596.08,402.50 596.60,402.55 602.00,405.09 C605.03,406.51 609.38,409.66 611.69,412.09 C613.99,414.51 618.27,419.04 621.19,422.14 C628.95,430.38 636.18,431.99 645.65,427.58 C649.29,425.89 651.97,423.61 654.79,419.84 C660.54,412.15 665.79,407.43 671.50,404.80 C676.31,402.59 677.65,402.49 706.46,402.19 C722.94,402.03 737.46,402.15 738.74,402.47 C742.31,403.37 744.99,408.65 745.00,414.78 C745.00,420.20 745.08,420.31 750.09,421.40 C753.61,422.16 757.62,426.37 758.37,430.08 C759.55,436.02 754.97,442.65 748.79,443.91 L 745.50 444.58 L 745.00 470.04 C744.46,497.52 744.20,498.85 738.92,501.03 C737.24,501.73 729.48,502.01 717.39,501.81 C699.47,501.52 698.22,501.37 693.00,498.90 C689.92,497.45 685.30,494.01 682.50,491.08 C676.29,484.59 671.45,482.00 665.49,482.00 C659.54,482.00 656.01,483.90 647.68,491.60 C638.78,499.83 632.60,502.32 621.00,502.38 C609.26,502.43 603.39,499.98 593.32,490.83 C584.45,482.78 582.88,482.00 575.57,482.00 C569.53,482.00 566.15,483.89 556.89,492.45 C553.78,495.32 551.74,497.28 549.36,498.62 C544.21,501.50 537.45,501.50 514.92,501.50 C514.14,501.50 513.33,501.50 512.50,501.50 L 481.50 501.50 L 476.15 498.68 C473.21,497.14 467.93,493.19 464.40,489.91 C457.02,483.04 454.82,482.00 447.68,482.00 C441.60,482.01 438.77,483.52 431.01,490.90 C427.98,493.77 422.76,497.47 419.40,499.12 ZM 688.58 648.25 C689.00,648.66 691.07,649.00 693.19,649.00 C696.84,649.00 703.99,645.49 706.50,642.47 C707.57,641.18 712.39,638.50 715.20,637.63 C719.71,636.23 723.72,619.83 724.71,598.77 L 725.22 588.03 L 722.59 587.03 C720.57,586.27 659.60,585.64 620.44,585.98 C619.30,585.99 617.39,586.92 616.19,588.04 C614.12,589.97 614.00,590.91 614.00,605.89 C614.00,615.00 613.52,623.07 612.88,624.92 C611.21,629.71 603.93,631.79 600.57,628.43 C599.26,627.11 599.00,623.84 599.00,608.38 L 599.00 589.90 L 596.35 587.45 C592.82,584.18 587.13,584.12 583.40,587.34 C580.79,589.58 580.73,589.85 581.84,594.28 C582.48,596.81 583.00,604.13 583.00,610.54 C583.00,623.67 581.79,627.18 576.65,628.97 C572.57,630.39 570.95,630.27 568.83,628.35 C567.20,626.87 566.99,624.81 566.90,609.60 C566.85,600.19 566.49,591.38 566.11,590.00 C565.29,587.05 559.15,584.59 554.91,585.52 C549.49,586.71 548.94,588.41 549.36,602.59 C549.57,609.69 550.08,616.29 550.48,617.25 C550.88,618.21 550.78,619.00 550.26,619.00 C549.73,619.00 549.26,620.42 549.21,622.16 C549.17,623.90 548.28,626.16 547.25,627.19 C544.68,629.77 539.02,630.53 536.50,628.65 C534.63,627.26 534.49,625.88 534.31,607.94 C534.19,595.61 533.73,588.33 533.03,587.63 C532.27,586.87 515.48,586.50 477.72,586.43 C447.90,586.37 401.64,586.19 374.93,586.04 C335.29,585.81 325.96,586.01 324.18,587.12 C322.98,587.87 322.00,588.82 322.00,589.24 C322.00,589.66 317.27,590.00 311.50,590.00 L 301.00 590.00 L 301.00 600.82 C301.00,622.50 308.22,635.31 325.00,643.37 L 331.50 646.50 L 509.67 647.00 C607.66,647.28 688.17,647.84 688.58,648.25 ZM 400.00 483.00 C401.38,484.08 402.59,484.97 402.71,484.98 C402.82,484.99 406.24,483.22 410.29,481.05 C416.75,477.59 422.72,476.02 421.41,478.14 C420.64,479.39 423.12,480.28 424.25,479.15 C425.01,478.39 424.63,477.50 422.91,476.07 C421.56,474.95 421.08,474.05 421.81,474.03 C422.53,474.01 422.88,473.62 422.59,473.15 C421.86,471.96 426.64,469.92 428.48,470.63 C429.98,471.21 430.91,469.84 431.42,466.33 C431.60,465.06 433.17,464.11 436.59,463.23 C443.46,461.46 461.47,463.18 464.44,465.88 C465.57,466.92 467.96,468.50 469.74,469.40 C471.52,470.30 473.75,472.27 474.69,473.77 C475.63,475.27 476.51,476.67 476.66,476.88 C476.80,477.08 478.40,477.42 480.21,477.64 C482.02,477.85 484.18,478.92 485.01,480.02 C486.38,481.83 487.25,481.95 494.51,481.34 C499.89,480.89 503.33,480.07 505.03,478.81 C509.46,475.55 514.30,475.40 519.38,478.38 C523.13,480.57 525.07,481.00 531.31,481.00 C536.71,481.00 539.10,480.59 540.00,479.50 C540.68,478.67 541.86,478.00 542.62,478.00 C543.38,478.00 545.69,476.31 547.76,474.25 C549.83,472.19 554.43,468.96 557.99,467.07 C563.34,464.23 565.80,463.57 572.33,463.19 C582.24,462.61 590.73,464.39 593.22,467.55 C594.22,468.83 596.27,470.01 597.76,470.19 C599.54,470.39 600.92,471.42 601.75,473.16 C602.46,474.64 604.43,476.30 606.22,476.93 C607.97,477.54 610.34,478.91 611.46,479.97 C613.71,482.07 618.48,482.49 626.19,481.25 C630.76,480.52 633.69,478.57 646.75,467.53 C649.64,465.08 651.55,464.42 657.39,463.84 C671.26,462.44 677.73,462.79 679.82,465.03 C680.86,466.15 683.69,468.06 686.10,469.28 C688.52,470.50 691.02,472.58 691.66,473.89 C693.33,477.32 700.47,480.57 708.00,481.32 C711.58,481.67 716.08,482.23 718.00,482.55 C723.45,483.47 724.82,481.74 726.40,471.94 C727.48,465.26 727.59,459.53 726.88,445.94 C726.39,436.35 725.55,426.92 725.02,425.00 L 724.07 421.50 L 702.78 421.59 C691.08,421.65 680.94,421.76 680.25,421.84 C678.04,422.12 671.00,429.17 671.00,431.12 C671.00,432.15 670.63,433.00 670.19,433.00 C669.74,433.00 667.15,435.04 664.44,437.53 C656.22,445.06 647.34,448.31 635.38,448.15 C626.89,448.03 620.67,446.31 616.12,442.83 C614.80,441.82 613.29,441.00 612.75,441.00 C611.12,441.00 600.00,429.37 600.00,427.65 C600.00,425.10 595.70,422.96 588.33,421.82 C580.08,420.55 578.43,420.58 574.97,422.01 C573.10,422.79 570.20,422.83 565.40,422.17 C559.20,421.32 558.10,421.44 554.51,423.36 C549.40,426.10 547.64,427.75 545.64,431.68 C544.75,433.43 543.15,435.13 542.09,435.47 C541.03,435.81 539.71,437.39 539.16,438.98 C538.36,441.27 537.34,442.03 534.32,442.59 C532.22,442.98 529.40,444.02 528.05,444.90 C526.70,445.78 522.87,447.20 519.55,448.05 C513.97,449.47 513.00,449.46 507.00,447.83 C503.42,446.85 499.38,446.04 498.00,446.01 C493.00,445.92 478.91,435.65 475.64,429.71 C474.67,427.94 472.09,425.25 469.90,423.73 C465.99,421.01 465.66,420.96 450.21,420.84 C435.17,420.71 434.28,420.82 429.41,423.29 C426.60,424.71 423.57,427.01 422.65,428.40 C420.31,431.98 408.37,443.84 406.80,444.14 C406.09,444.28 404.45,444.04 403.16,443.60 C401.37,442.99 400.49,443.28 399.40,444.84 C397.31,447.83 388.55,450.03 383.00,448.97 C368.83,446.26 362.21,443.34 359.47,438.62 C358.48,436.90 356.43,434.30 354.92,432.83 C353.42,431.36 351.89,429.22 351.52,428.07 C351.16,426.91 350.49,426.20 350.03,426.48 C349.58,426.76 348.97,426.36 348.68,425.60 C347.77,423.25 338.51,420.75 333.22,421.43 C330.62,421.76 326.87,422.22 324.88,422.45 C322.88,422.69 317.26,422.26 312.38,421.51 C304.17,420.25 303.31,420.28 301.00,421.93 C298.56,423.66 298.48,424.14 297.70,440.60 C296.93,456.98 297.33,474.23 298.58,478.67 C299.46,481.81 303.42,482.92 312.50,482.60 C321.09,482.29 328.67,479.89 327.42,477.87 C326.96,477.13 327.12,476.96 327.85,477.40 C328.48,477.80 329.00,477.74 329.00,477.27 C329.00,476.81 329.95,476.35 331.11,476.27 C333.79,476.06 334.30,475.53 334.49,472.75 C334.61,470.97 335.51,470.30 338.76,469.57 C341.74,468.90 343.02,468.04 343.42,466.45 C343.73,465.24 345.35,463.68 347.03,462.99 C351.40,461.18 364.02,462.29 369.08,464.93 C371.27,466.07 374.12,467.00 375.41,467.00 C377.64,467.00 385.00,473.81 385.00,475.87 C385.00,476.75 394.35,480.98 396.38,481.02 C397.00,481.03 398.62,481.92 400.00,483.00 ZM 524.00 833.00 C520.94,836.06 512.71,835.80 509.45,832.55 L 507.00 830.09 L 507.00 783.16 C507.00,779.57 507.00,776.24 506.99,773.13 C506.96,742.41 506.96,734.37 510.36,732.49 C511.56,731.82 513.20,731.93 515.41,732.08 C516.04,732.12 516.72,732.17 517.45,732.20 L 524.39 732.50 L 541.45 760.74 C550.83,776.27 558.72,788.97 559.00,788.96 C559.28,788.95 566.47,777.14 575.00,762.72 C583.52,748.30 591.48,735.49 592.70,734.25 C594.49,732.42 596.01,732.00 600.76,732.00 C601.53,732.00 602.23,731.98 602.88,731.96 C604.82,731.90 606.26,731.85 607.34,732.45 C610.55,734.25 610.54,741.80 610.51,771.75 C610.50,775.14 610.50,778.82 610.50,782.81 C610.50,828.59 610.41,830.89 608.60,832.90 C605.73,836.06 597.77,835.86 594.45,832.55 L 592.00 830.09 L 592.00 767.54 L 589.64 771.02 C588.35,772.93 582.71,782.15 577.11,791.50 C571.51,800.85 565.79,809.51 564.41,810.75 C561.30,813.53 556.13,813.70 553.36,811.12 C552.25,810.09 545.98,800.20 539.42,789.16 C532.87,778.11 527.16,769.05 526.75,769.03 C526.34,769.02 526.00,782.95 526.00,800.00 C526.00,829.67 525.91,831.09 524.00,833.00 ZM 198.41 833.10 C195.73,836.06 187.65,835.74 184.45,832.55 L 182.00 830.09 L 182.00 783.16 C182.00,780.05 182.00,777.14 182.00,774.40 C181.97,742.17 181.97,734.35 185.33,732.44 C186.41,731.83 187.83,731.82 189.71,731.81 C190.20,731.81 190.73,731.80 191.30,731.79 C196.25,731.67 197.44,732.00 199.40,734.07 C200.67,735.41 207.93,746.85 215.53,759.50 C233.46,789.32 233.48,789.35 234.72,787.77 C235.27,787.07 242.58,775.03 250.96,761.00 C259.35,746.97 266.91,734.71 267.76,733.75 C268.92,732.44 270.86,732.00 275.50,732.00 C280.13,732.00 282.08,732.44 283.26,733.75 C284.62,735.28 284.87,741.62 285.16,783.14 C285.49,828.85 285.42,830.88 283.60,832.89 C282.12,834.53 280.51,835.00 276.42,835.00 C271.91,835.00 270.84,834.62 269.07,832.37 C267.08,829.83 267.00,828.56 267.00,800.03 C267.00,783.70 266.71,770.05 266.37,769.70 C266.02,769.35 261.68,775.69 256.72,783.78 C242.08,807.69 239.48,812.04 236.05,812.83 C235.29,813.00 234.49,813.00 233.51,813.00 L 233.25 813.00 C229.26,813.00 226.69,809.95 216.78,793.50 C206.69,776.75 201.10,768.00 200.49,768.00 C200.25,768.00 200.07,782.22 200.09,799.60 C200.13,828.12 199.97,831.38 198.41,833.10 ZM 427.54 833.90 C410.51,840.27 391.26,831.44 382.26,813.12 C379.75,808.02 379.50,806.49 379.50,796.48 C379.50,786.04 379.67,785.10 382.79,778.78 C388.58,767.01 399.36,759.63 412.53,758.41 C420.79,757.64 429.82,759.60 435.99,763.50 L 440.03 766.05 L 441.00 763.50 C442.32,760.04 446.41,758.60 451.98,759.65 C455.27,760.28 456.79,761.16 457.71,763.00 C458.64,764.85 458.97,773.84 458.99,797.62 C459.00,828.60 458.93,829.82 456.93,832.37 C455.18,834.58 454.06,835.00 449.86,835.00 C443.36,835.00 441.23,833.75 440.43,829.48 L 439.78 825.99 L 436.47 828.89 C434.65,830.49 430.64,832.74 427.54,833.90 ZM 668.78 834.47 C654.25,838.79 637.78,832.81 628.71,819.93 C623.38,812.35 621.68,805.77 622.18,794.50 C622.52,786.64 623.05,784.35 625.79,778.78 C631.52,767.13 642.15,759.74 655.03,758.43 C663.38,757.58 671.41,759.24 677.41,763.04 C679.97,764.67 682.23,766.00 682.43,766.00 C682.62,766.00 683.06,764.91 683.39,763.58 C684.59,758.81 697.64,757.59 700.01,762.02 C700.61,763.13 701.00,777.42 701.00,797.88 L 701.00 831.89 L 698.78 833.44 C697.54,834.31 694.50,835.00 691.93,835.00 C686.70,835.00 684.14,833.02 683.79,828.67 C683.66,827.20 683.44,826.00 683.29,826.00 C683.14,826.00 680.97,827.56 678.47,829.47 C675.96,831.38 671.60,833.63 668.78,834.47 ZM 826.35 832.90 C815.06,837.54 798.64,836.50 788.39,830.49 C767.67,818.35 763.90,786.35 781.15,769.16 C786.75,763.58 793.05,760.40 801.40,758.94 C810.43,757.37 817.62,758.44 825.94,762.60 C833.98,766.63 838.17,771.00 842.18,779.57 C847.32,790.56 846.92,800.94 841.28,803.08 C839.95,803.59 827.65,804.00 813.93,804.00 C797.19,804.00 789.00,804.34 789.00,805.05 C789.00,806.99 791.80,811.48 794.66,814.14 C803.23,822.09 815.00,822.60 825.73,815.48 C828.61,813.57 832.06,812.00 833.40,812.00 C836.27,812.00 841.00,817.14 841.00,820.26 C841.00,823.33 833.14,830.11 826.35,832.90 ZM 352.26 833.03 C345.13,835.74 331.52,836.54 325.00,834.63 C313.62,831.30 305.51,824.80 300.79,815.23 C297.65,808.84 297.50,808.03 297.50,797.02 C297.50,786.71 297.77,784.92 300.09,780.00 C301.51,776.97 304.72,772.39 307.23,769.82 C321.61,755.06 346.55,754.42 360.60,768.47 C366.37,774.24 368.69,778.17 370.64,785.50 C372.78,793.53 372.42,798.67 369.50,801.59 L 367.00 804.09 L 341.28 803.95 C326.02,803.86 315.44,804.19 315.25,804.74 C314.55,806.86 321.66,815.47 326.00,817.77 C329.83,819.79 331.63,820.10 338.09,819.82 C344.91,819.53 346.24,819.12 351.32,815.75 C358.13,811.23 361.99,810.90 364.89,814.58 C368.91,819.70 368.72,821.02 363.15,826.14 C360.13,828.91 355.66,831.74 352.26,833.03 ZM 763.78 833.44 C762.08,834.63 758.94,834.99 750.53,834.96 C738.59,834.92 735.43,834.04 730.64,829.45 C725.44,824.47 725.00,822.04 725.00,798.03 L 725.00 776.00 L 719.07 776.00 C713.86,776.00 712.90,775.68 711.07,773.37 C708.54,770.15 708.39,764.97 710.75,762.08 C712.33,760.14 715.62,759.28 722.25,759.06 C723.81,759.01 724.00,757.77 724.00,747.61 C724.00,738.16 724.30,735.85 725.79,734.01 C728.21,731.02 735.96,730.09 739.45,732.38 C741.86,733.95 741.95,734.42 742.22,746.75 L 742.50 759.50 L 752.50 759.77 C760.45,759.99 762.76,760.39 763.75,761.72 C765.49,764.04 765.31,771.11 763.44,773.78 C762.01,775.82 761.08,776.00 751.94,776.00 L 742.00 776.00 L 742.00 794.45 C742.00,806.20 742.42,813.82 743.15,815.42 C744.69,818.82 749.88,820.40 757.02,819.66 C764.17,818.91 766.00,820.46 766.00,827.27 C766.00,830.91 765.53,832.22 763.78,833.44 ZM 540.91 274.09 C534.18,278.14 525.97,278.63 518.97,275.40 C512.85,272.58 507.96,268.34 504.39,262.76 C502.00,259.04 502.00,258.99 503.42,249.52 C504.39,243.05 505.52,239.16 506.93,237.37 C508.07,235.92 509.00,234.14 509.00,233.42 C509.00,231.60 512.97,229.00 515.75,229.00 C517.28,229.00 518.37,229.83 519.00,231.50 C520.02,234.17 521.44,234.71 522.58,232.86 C522.97,232.23 522.31,230.99 521.10,230.07 C519.68,229.01 519.13,227.82 519.54,226.75 C520.48,224.31 534.84,225.22 539.89,228.04 C541.87,229.15 544.85,230.41 546.50,230.85 C548.82,231.45 549.79,232.52 550.80,235.54 C551.51,237.69 552.69,240.13 553.42,240.97 C555.06,242.87 557.40,255.16 556.60,257.66 C556.00,259.52 551.03,265.24 548.74,266.71 C548.06,267.14 547.01,268.39 546.41,269.47 C545.81,270.56 543.33,272.64 540.91,274.09 ZM 434.68 312.62 C432.05,315.76 431.46,315.99 426.18,315.90 C416.14,315.72 410.97,313.51 405.31,307.00 C397.03,297.46 395.66,287.27 401.20,276.25 C404.22,270.24 404.80,269.69 411.56,266.44 C417.27,263.69 419.92,263.00 424.73,263.00 C428.67,263.00 431.16,263.48 431.91,264.40 C432.55,265.16 434.65,266.09 436.58,266.45 C438.96,266.90 440.45,267.90 441.21,269.55 C441.82,270.90 442.67,272.00 443.09,272.00 C443.51,272.00 445.32,274.14 447.11,276.75 C450.04,281.03 450.34,282.12 450.12,287.79 C449.75,297.13 444.78,307.01 439.66,308.59 C438.47,308.95 436.23,310.77 434.68,312.62 ZM 635.75 321.97 C631.23,324.17 628.16,324.98 624.51,324.94 C618.21,324.86 616.66,324.22 608.84,318.47 C600.87,312.61 599.67,309.76 599.93,297.21 C600.09,289.16 600.45,287.42 602.58,284.29 C605.44,280.07 607.42,278.56 611.33,277.61 C612.89,277.23 615.90,275.77 618.03,274.36 C621.25,272.23 622.71,271.89 626.70,272.30 C635.04,273.18 637.38,274.20 642.08,278.99 C648.84,285.89 651.00,291.04 651.00,300.28 C651.00,307.64 650.87,308.06 647.61,311.32 C645.75,313.18 643.72,315.66 643.10,316.82 C642.47,317.98 639.17,320.30 635.75,321.97 ZM 489.69 832.83 C487.93,834.47 486.13,835.00 482.26,835.00 C477.93,835.00 476.83,834.60 475.07,832.37 C473.04,829.78 473.00,828.77 473.00,782.52 C473.00,779.27 473.00,776.24 473.00,773.39 C472.97,741.63 472.97,734.18 476.26,732.19 C477.56,731.41 479.38,731.48 481.92,731.23 C486.23,730.82 487.18,731.09 489.43,733.33 L 492.00 735.91 L 492.00 830.65 ZM 408.53 816.23 C421.25,823.21 436.31,816.71 440.11,802.61 C442.90,792.23 437.37,780.56 427.77,776.55 C417.90,772.43 405.79,775.96 400.50,784.50 C397.90,788.70 397.50,790.29 397.50,796.50 C397.50,802.72 397.90,804.30 400.53,808.58 C402.62,811.96 405.12,814.35 408.53,816.23 ZM 657.50 819.10 C661.21,820.04 666.46,819.32 670.78,817.29 C675.06,815.27 680.75,808.57 682.00,804.07 C684.75,794.17 681.22,783.16 673.70,778.18 C670.14,775.82 668.66,775.50 661.50,775.50 C654.28,775.50 652.88,775.81 649.19,778.25 C643.57,781.98 640.00,789.06 640.00,796.50 C640.00,807.70 646.70,816.36 657.50,819.10 ZM 316.00 788.40 C316.00,789.81 318.30,790.00 335.57,790.00 C336.81,790.00 337.98,790.00 339.08,790.00 C349.76,790.02 353.85,790.02 354.51,788.52 C354.92,787.59 354.02,786.09 352.55,783.65 C352.31,783.24 352.05,782.81 351.78,782.35 C346.77,773.86 332.91,771.13 323.87,776.87 C319.55,779.60 316.00,784.81 316.00,788.40 ZM 789.00 788.45 C789.00,789.80 791.50,790.00 807.94,790.00 C819.11,790.00 827.13,789.60 827.48,789.03 C828.15,787.94 825.62,782.48 823.13,779.64 C818.74,774.64 807.44,772.37 800.32,775.06 C795.18,777.00 789.00,784.32 789.00,788.45 ZM 367.56 337.01 C366.43,337.02 364.57,337.28 363.43,337.58 C360.63,338.34 358.86,335.96 358.26,330.65 C357.78,326.34 357.82,326.27 362.51,323.65 C368.49,320.31 369.39,320.34 371.93,323.90 C375.82,329.37 373.29,336.98 367.56,337.01 ZM 419.08 294.41 C422.62,297.39 424.01,297.57 427.93,295.54 C431.05,293.92 432.01,292.18 431.98,288.17 C431.97,284.94 431.19,283.66 428.32,282.15 C419.47,277.49 411.52,288.05 419.08,294.41 ZM 491.23 300.15 C489.85,302.82 488.22,304.97 487.61,304.94 C487.00,304.90 484.37,303.44 481.77,301.69 C475.59,297.53 475.39,294.63 480.94,290.17 C486.75,285.50 489.82,285.97 492.33,291.93 C493.65,295.06 493.57,295.65 491.23,300.15 ZM 622.11 305.63 C627.20,308.50 633.00,304.55 633.00,298.22 C633.00,293.24 630.65,291.00 625.42,291.00 C621.99,291.00 620.73,291.52 619.07,293.63 C617.93,295.08 617.02,297.00 617.04,297.88 C617.09,300.46 619.52,304.17 622.11,305.63 ZM 524.08 256.41 C527.62,259.39 529.01,259.57 532.93,257.54 C539.96,253.90 537.30,243.00 529.38,243.00 C521.63,243.00 518.26,251.52 524.08,256.41 ZM 565.00 311.00 C562.13,313.87 556.56,313.66 553.45,310.55 C550.63,307.72 550.43,306.01 552.43,302.13 C555.11,296.94 556.30,296.61 561.92,299.46 C566.56,301.81 567.00,302.33 567.00,305.52 C567.00,307.67 566.23,309.77 565.00,311.00 ZM 481.47 250.03 C480.62,250.73 477.74,251.51 475.07,251.77 C469.48,252.30 468.00,250.81 468.00,244.64 C468.00,240.34 472.06,236.60 475.99,237.27 C482.16,238.33 482.81,239.07 482.93,245.13 C482.97,247.24 482.36,249.29 481.47,250.03 ZM 442.25 342.40 C441.29,342.69 438.11,342.90 435.19,342.87 C430.43,342.81 429.78,342.54 428.90,340.23 C427.79,337.32 428.53,332.61 430.31,331.21 C430.97,330.69 433.41,329.98 435.74,329.63 C439.20,329.10 440.35,329.35 441.99,330.99 C444.67,333.67 444.85,341.61 442.25,342.40 ZM 596.60 342.47 C595.48,346.90 583.25,344.41 581.31,339.36 C580.37,336.91 583.96,331.05 586.86,330.32 C588.47,329.92 590.67,330.38 592.94,331.59 C595.78,333.12 596.57,334.18 596.82,336.89 C597.00,338.75 596.90,341.27 596.60,342.47 ZM 685.93 335.79 C681.74,341.47 678.07,341.63 674.63,336.25 C672.90,333.54 672.49,332.02 673.15,330.75 C673.66,329.79 674.50,329.00 675.04,329.00 C675.57,329.00 676.00,327.93 676.00,326.62 C676.00,323.20 678.16,321.73 681.38,322.95 C683.22,323.66 684.00,324.68 684.00,326.41 C684.00,328.16 684.62,328.95 686.17,329.18 C689.41,329.66 689.36,331.12 685.93,335.79 ZM 510.53 330.96 C508.59,333.11 508.37,333.18 506.00,332.27 C501.88,330.70 501.84,324.01 505.92,319.92 C509.75,316.09 513.10,316.14 516.41,320.08 C519.67,323.95 519.82,327.76 516.75,328.90 C515.51,329.36 514.02,329.56 513.44,329.33 C512.85,329.11 511.54,329.85 510.53,330.96 ZM 582.04 268.98 C578.74,270.74 575.61,270.10 572.25,266.94 C570.46,265.27 569.00,263.46 569.00,262.92 C569.00,261.56 575.68,255.00 577.06,255.00 C579.40,255.00 583.96,258.48 585.04,261.10 C586.34,264.23 585.17,267.30 582.04,268.98 ZM 569.52 607.04 C570.63,608.83 572.00,606.95 571.96,603.69 L 571.92 600.50 L 570.42 603.27 C569.59,604.80 569.19,606.49 569.52,607.04 ZM 506.68 257.60 C506.97,258.37 507.62,259.00 508.11,259.00 C509.25,259.00 509.28,256.29 508.14,255.59 C506.89,254.81 506.05,255.97 506.68,257.60 ZM 688.00 479.00 C688.00,479.55 688.67,480.00 689.50,480.00 C690.33,480.00 691.00,479.55 691.00,479.00 C691.00,478.45 690.33,478.00 689.50,478.00 C688.67,478.00 688.00,478.45 688.00,479.00 Z" fill="rgb(52,33,31)" data-index="0"></path>
<path d="M 400.00 483.00 C398.62,481.92 397.00,481.03 396.38,481.02 C394.35,480.98 385.00,476.75 385.00,475.87 C385.00,473.81 377.64,467.00 375.41,467.00 C374.12,467.00 371.27,466.07 369.08,464.93 C364.02,462.29 351.40,461.18 347.03,462.99 C345.35,463.68 343.73,465.24 343.42,466.45 C343.02,468.04 341.74,468.90 338.76,469.57 C335.51,470.30 334.61,470.97 334.49,472.75 C334.30,475.53 333.79,476.06 331.11,476.27 C329.95,476.35 329.00,476.81 329.00,477.27 C329.00,477.74 328.48,477.80 327.85,477.40 C327.12,476.96 326.96,477.13 327.42,477.87 C328.67,479.89 321.09,482.29 312.50,482.60 C303.42,482.92 299.46,481.81 298.58,478.67 C297.33,474.23 296.93,456.98 297.70,440.60 C298.48,424.14 298.56,423.66 301.00,421.93 C303.31,420.28 304.17,420.25 312.38,421.51 C317.26,422.26 322.88,422.69 324.88,422.45 C326.87,422.22 330.62,421.76 333.22,421.43 C338.51,420.75 347.77,423.25 348.68,425.60 C348.97,426.36 349.58,426.76 350.03,426.48 C350.49,426.20 351.16,426.91 351.52,428.07 C351.89,429.22 353.42,431.36 354.92,432.83 C356.43,434.30 358.48,436.90 359.47,438.62 C362.21,443.34 368.83,446.26 383.00,448.97 C388.55,450.03 397.31,447.83 399.40,444.84 C400.49,443.28 401.37,442.99 403.16,443.60 C404.45,444.04 406.09,444.28 406.80,444.14 C408.37,443.84 420.31,431.98 422.65,428.40 C423.57,427.01 426.60,424.71 429.41,423.29 C434.28,420.82 435.17,420.71 450.21,420.84 C465.66,420.96 465.99,421.01 469.90,423.73 C472.09,425.25 474.67,427.94 475.64,429.71 C478.91,435.65 493.00,445.92 498.00,446.01 C499.38,446.04 503.42,446.85 507.00,447.83 C513.00,449.46 513.97,449.47 519.55,448.05 C522.87,447.20 526.70,445.78 528.05,444.90 C529.40,444.02 532.22,442.98 534.32,442.59 C537.34,442.03 538.36,441.27 539.16,438.98 C539.71,437.39 541.03,435.81 542.09,435.47 C543.15,435.13 544.75,433.43 545.64,431.68 C547.64,427.75 549.40,426.10 554.51,423.36 C558.10,421.44 559.20,421.32 565.40,422.17 C570.20,422.83 573.10,422.79 574.97,422.01 C578.43,420.58 580.08,420.55 588.33,421.82 C595.70,422.96 600.00,425.10 600.00,427.65 C600.00,429.37 611.12,441.00 612.75,441.00 C613.29,441.00 614.80,441.82 616.12,442.83 C620.67,446.31 626.89,448.03 635.38,448.15 C647.34,448.31 656.22,445.06 664.44,437.53 C667.15,435.04 669.74,433.00 670.19,433.00 C670.63,433.00 671.00,432.15 671.00,431.12 C671.00,429.17 678.04,422.12 680.25,421.84 C680.94,421.76 691.08,421.65 702.78,421.59 L 724.07 421.50 L 725.02 425.00 C725.55,426.92 726.39,436.35 726.88,445.94 C727.59,459.53 727.48,465.26 726.40,471.94 C724.82,481.74 723.45,483.47 718.00,482.55 C716.08,482.23 711.58,481.67 708.00,481.32 C700.47,480.57 693.33,477.32 691.66,473.89 C691.02,472.58 688.52,470.50 686.10,469.28 C683.69,468.06 680.86,466.15 679.82,465.03 C677.73,462.79 671.26,462.44 657.39,463.84 C651.55,464.42 649.64,465.08 646.75,467.53 C633.69,478.57 630.76,480.52 626.19,481.25 C618.48,482.49 613.71,482.07 611.46,479.97 C610.34,478.91 607.97,477.54 606.22,476.93 C604.43,476.30 602.46,474.64 601.75,473.16 C600.92,471.42 599.54,470.39 597.76,470.19 C596.27,470.01 594.22,468.83 593.22,467.55 C590.73,464.39 582.24,462.61 572.33,463.19 C565.80,463.57 563.34,464.23 557.99,467.07 C554.43,468.96 549.83,472.19 547.76,474.25 C545.69,476.31 543.38,478.00 542.62,478.00 C541.86,478.00 540.68,478.67 540.00,479.50 C539.10,480.59 536.71,481.00 531.31,481.00 C525.07,481.00 523.13,480.57 519.38,478.38 C514.30,475.40 509.46,475.55 505.03,478.81 C503.33,480.07 499.89,480.89 494.51,481.34 C487.25,481.95 486.38,481.83 485.01,480.02 C484.18,478.92 482.02,477.85 480.21,477.64 C478.40,477.42 476.80,477.08 476.66,476.88 C476.51,476.67 475.63,475.27 474.69,473.77 C473.75,472.27 471.52,470.30 469.74,469.40 C467.96,468.50 465.57,466.92 464.44,465.88 C461.47,463.18 443.46,461.46 436.59,463.23 C433.17,464.11 431.60,465.06 431.42,466.33 C430.91,469.84 429.98,471.21 428.48,470.63 C426.64,469.92 421.86,471.96 422.59,473.15 C422.88,473.62 422.53,474.01 421.81,474.03 C421.08,474.05 421.56,474.95 422.91,476.07 C424.63,477.50 425.01,478.39 424.25,479.15 C423.12,480.28 420.64,479.39 421.41,478.14 C422.72,476.02 416.75,477.59 410.29,481.05 C406.24,483.22 402.82,484.99 402.71,484.98 C402.59,484.97 401.38,484.08 400.00,483.00 ZM 302.75 479.37 C305.80,480.28 319.65,479.26 322.12,477.95 C323.43,477.25 327.19,474.26 330.47,471.30 C342.15,460.76 354.88,457.06 367.94,460.41 C375.64,462.38 379.81,464.78 386.73,471.22 C398.94,482.56 406.97,482.71 418.91,471.81 C427.32,464.14 435.43,460.21 444.50,459.39 C456.77,458.28 466.84,462.04 477.09,471.53 C487.34,481.02 496.15,482.15 504.73,475.07 C509.90,470.81 515.18,470.81 519.58,475.08 C523.54,478.91 528.89,480.22 535.14,478.88 C538.70,478.11 541.51,476.41 546.60,471.91 C550.31,468.63 556.30,464.50 559.90,462.73 C565.90,459.77 567.27,459.50 576.00,459.50 C584.83,459.50 586.06,459.75 592.44,462.89 C596.23,464.76 602.00,468.74 605.25,471.73 C617.40,482.90 624.66,482.84 637.01,471.49 C653.89,455.98 674.01,454.93 690.39,468.70 C694.18,471.89 698.35,475.33 699.66,476.35 C702.36,478.45 714.74,480.38 719.75,479.49 L 723.00 478.91 L 723.00 423.86 L 702.22 424.18 C687.76,424.40 682.51,424.35 678.69,426.66 C676.24,428.15 674.38,430.61 671.04,434.76 C661.57,446.52 652.07,451.23 637.50,451.40 C622.15,451.57 610.75,446.12 601.45,434.14 C594.23,424.85 591.97,424.00 574.51,424.00 C556.63,424.00 555.19,424.54 546.78,434.41 C539.06,443.46 531.80,448.34 522.78,450.55 C505.64,454.75 488.08,448.44 476.39,433.87 C469.10,424.77 466.98,424.00 449.44,424.00 C438.10,424.00 434.04,424.36 431.44,425.60 C429.58,426.48 424.72,430.88 420.63,435.38 C410.09,447.00 400.02,451.96 386.93,451.99 C374.32,452.02 363.31,446.48 352.81,434.85 C348.82,430.44 344.33,426.19 342.83,425.41 C340.75,424.34 335.42,424.00 320.55,424.00 L 301.00 424.00 L 301.00 451.43 C301.00,476.68 301.14,478.89 302.75,479.37 ZM 540.50 277.96 C525.86,284.32 508.26,277.52 501.78,263.00 C498.84,256.42 498.86,246.00 501.82,239.50 C504.69,233.20 510.07,227.59 516.50,224.18 C520.75,221.92 522.71,221.53 529.50,221.58 C534.49,221.61 538.87,222.23 541.14,223.22 C546.48,225.55 552.79,231.67 555.79,237.44 C558.02,241.73 558.42,243.80 558.44,251.00 C558.47,258.58 558.15,260.09 555.48,264.92 C552.37,270.59 547.27,275.02 540.50,277.96 ZM 638.01 325.22 C635.53,326.29 630.35,327.38 626.50,327.63 C620.68,328.01 618.54,327.68 613.83,325.69 C607.63,323.06 602.91,319.60 601.30,316.50 C600.73,315.40 599.42,312.92 598.40,311.00 C597.21,308.75 596.41,304.77 596.17,299.85 C595.85,293.23 596.16,291.40 598.47,286.26 C603.24,275.62 613.76,269.00 625.89,269.00 C636.95,269.00 647.10,275.42 652.02,285.51 C655.26,292.16 655.39,303.31 652.31,310.12 C649.42,316.52 643.37,322.91 638.01,325.22 ZM 437.15 315.29 C427.16,319.66 417.76,319.40 409.41,314.50 C400.92,309.52 397.32,304.67 395.02,295.07 C392.01,282.55 398.90,268.63 411.17,262.41 C415.07,260.44 417.44,260.00 424.28,260.00 C434.69,260.00 438.80,261.81 445.83,269.51 C452.01,276.27 453.38,280.61 452.77,291.50 C452.09,303.51 447.26,310.86 437.15,315.29 ZM 688.58 648.25 C688.17,647.84 607.66,647.28 509.67,647.00 L 331.50 646.50 L 327.67 644.66 C329.03,645.17 330.39,645.60 331.75,645.92 C333.89,646.43 412.18,646.75 514.15,646.66 L 692.80 646.50 L 700.65 642.43 C706.72,639.29 709.57,637.04 713.23,632.51 C720.09,624.01 721.47,619.15 721.49,603.50 L 721.50 590.50 L 670.06 590.24 C629.58,590.04 618.46,590.25 617.83,591.24 C617.39,591.93 617.02,600.53 617.02,610.35 L 617.00 628.20 L 613.89 631.10 C611.71,633.14 609.76,634.00 607.34,634.00 C603.23,634.00 598.45,631.71 597.03,629.06 C596.46,627.98 595.92,618.80 595.81,608.07 L 595.62 589.00 L 585.00 589.00 L 585.00 627.20 L 581.60 630.60 C579.08,633.12 577.33,634.00 574.85,634.00 C570.60,633.99 565.24,630.76 563.98,627.43 C563.44,626.02 563.00,616.80 563.00,606.93 L 563.00 589.00 L 552.00 589.00 L 552.00 627.85 L 549.41 630.92 C547.44,633.26 546.00,634.00 543.38,634.00 C538.85,634.00 533.43,631.67 532.08,629.15 C531.43,627.93 531.00,620.40 531.00,610.15 C531.00,600.81 530.73,592.45 530.39,591.58 C529.84,590.15 518.78,590.00 415.39,590.00 L 311.50 590.00 C317.27,590.00 322.00,589.66 322.00,589.24 C322.00,588.82 322.98,587.87 324.18,587.12 C325.96,586.01 335.29,585.81 374.93,586.04 C401.64,586.19 447.90,586.37 477.72,586.43 C515.48,586.50 532.27,586.87 533.03,587.63 C533.73,588.33 534.19,595.61 534.31,607.94 C534.49,625.88 534.63,627.26 536.50,628.65 C539.02,630.53 544.68,629.77 547.25,627.19 C548.28,626.16 549.17,623.90 549.21,622.16 C549.26,620.42 549.73,619.00 550.26,619.00 C550.78,619.00 550.88,618.21 550.48,617.25 C550.08,616.29 549.57,609.69 549.36,602.59 C548.94,588.41 549.49,586.71 554.91,585.52 C559.15,584.59 565.29,587.05 566.11,590.00 C566.49,591.38 566.85,600.19 566.90,609.60 C566.99,624.81 567.20,626.87 568.83,628.35 C570.95,630.27 572.57,630.39 576.65,628.97 C581.79,627.18 583.00,623.67 583.00,610.54 C583.00,604.13 582.48,596.81 581.84,594.28 C580.73,589.85 580.79,589.58 583.40,587.34 C587.13,584.12 592.82,584.18 596.35,587.45 L 599.00 589.90 L 599.00 608.38 C599.00,623.84 599.26,627.11 600.57,628.43 C603.93,631.79 611.21,629.71 612.88,624.92 C613.52,623.07 614.00,615.00 614.00,605.89 C614.00,590.91 614.12,589.97 616.19,588.04 C617.39,586.92 619.30,585.99 620.44,585.98 C659.60,585.64 720.57,586.27 722.59,587.03 L 725.22 588.03 L 724.71 598.77 C723.72,619.83 719.71,636.23 715.20,637.63 C712.39,638.50 707.57,641.18 706.50,642.47 C703.99,645.49 696.84,649.00 693.19,649.00 C691.07,649.00 689.00,648.66 688.58,648.25 ZM 322.84 361.11 C321.64,359.20 320.60,359.00 311.76,359.00 L 302.00 359.00 L 302.00 358.97 L 511.25 358.74 L 720.50 358.50 L 720.79 355.50 C721.40,349.20 716.59,334.77 710.03,323.21 C706.55,317.07 702.98,311.23 702.10,310.22 C701.22,309.21 700.05,307.69 699.50,306.82 C697.77,304.11 689.74,293.63 687.06,290.59 C683.10,286.09 666.72,269.94 661.86,265.74 C659.46,263.68 656.64,261.25 655.60,260.34 C635.68,243.10 587.94,220.30 565.92,217.51 C564.34,217.32 562.65,216.90 562.16,216.60 C561.67,216.30 555.47,215.08 548.38,213.89 C531.04,210.98 496.52,210.71 478.12,213.33 C459.97,215.92 438.24,221.56 427.79,226.39 C425.98,227.22 422.02,228.87 419.00,230.04 C415.98,231.20 409.57,234.38 404.77,237.08 C400.75,239.34 397.13,241.26 395.83,241.83 L 395.88 241.81 C399.38,239.98 402.08,238.17 401.88,237.79 C401.20,236.56 411.15,230.19 414.83,229.50 C416.80,229.13 419.70,227.74 421.28,226.42 C422.86,225.09 425.36,223.74 426.83,223.42 C428.30,223.10 431.75,221.65 434.50,220.21 C437.25,218.77 441.52,217.27 444.00,216.89 C446.48,216.51 452.10,215.22 456.50,214.03 C460.90,212.84 466.08,211.44 468.00,210.93 C478.53,208.12 519.38,206.16 527.50,208.06 C529.15,208.45 535.67,209.31 542.00,209.98 C557.35,211.59 557.47,211.62 560.16,213.30 C561.45,214.11 565.61,215.01 569.42,215.29 C574.98,215.70 576.66,216.22 577.97,217.96 C579.09,219.44 581.01,220.27 584.05,220.57 C592.44,221.40 594.65,222.03 598.02,224.51 C599.87,225.88 602.40,227.00 603.65,227.00 C604.89,227.00 609.19,228.71 613.20,230.80 C617.22,232.89 622.46,235.22 624.85,235.99 C627.25,236.76 629.89,238.43 630.72,239.69 C631.72,241.23 633.21,242.00 635.14,242.00 C637.24,242.00 638.35,242.67 639.15,244.43 C639.76,245.77 641.55,247.40 643.13,248.05 C644.71,248.71 646.00,249.58 646.00,250.00 C646.00,250.42 647.29,251.29 648.87,251.95 C650.45,252.60 652.24,254.23 652.85,255.57 C653.61,257.24 654.77,258.00 656.55,258.00 C658.13,258.00 660.01,259.03 661.33,260.60 C662.52,262.04 664.24,263.89 665.14,264.72 C670.48,269.64 672.38,271.14 674.96,272.48 C676.55,273.30 678.87,275.44 680.14,277.23 C681.40,279.03 682.78,280.65 683.22,280.83 C683.65,281.02 685.55,283.50 687.45,286.36 C689.34,289.21 691.93,292.47 693.20,293.61 C697.39,297.35 701.47,302.40 703.61,306.48 C708.38,315.59 709.99,318.33 711.57,320.08 C712.49,321.09 713.52,323.31 713.87,325.01 C714.22,326.71 714.90,328.04 715.39,327.96 C716.63,327.78 717.97,330.11 717.99,332.50 C718.00,333.60 719.19,336.75 720.63,339.50 C722.06,342.25 723.83,345.62 724.56,347.00 C726.22,350.17 725.64,357.79 723.56,359.86 C722.14,361.29 703.23,361.46 526.24,361.55 C418.58,361.61 329.07,362.01 327.33,362.44 C324.69,363.09 323.93,362.86 322.84,361.11 ZM 540.91 274.09 C543.33,272.64 545.81,270.56 546.41,269.47 C547.01,268.39 548.06,267.14 548.74,266.71 C551.03,265.24 556.00,259.52 556.60,257.66 C557.40,255.16 555.06,242.87 553.42,240.97 C552.69,240.13 551.51,237.69 550.80,235.54 C549.79,232.52 548.82,231.45 546.50,230.85 C544.85,230.41 541.87,229.15 539.89,228.04 C534.84,225.22 520.48,224.31 519.54,226.75 C519.13,227.82 519.68,229.01 521.10,230.07 C522.31,230.99 522.97,232.23 522.58,232.86 C521.44,234.71 520.02,234.17 519.00,231.50 C518.37,229.83 517.28,229.00 515.75,229.00 C512.97,229.00 509.00,231.60 509.00,233.42 C509.00,234.14 508.07,235.92 506.93,237.37 C505.52,239.16 504.39,243.05 503.42,249.52 C502.00,258.99 502.00,259.04 504.39,262.76 C507.96,268.34 512.85,272.58 518.97,275.40 C525.97,278.63 534.18,278.14 540.91,274.09 ZM 434.68 312.62 C436.23,310.77 438.47,308.95 439.66,308.59 C444.78,307.01 449.75,297.13 450.12,287.79 C450.34,282.12 450.04,281.03 447.11,276.75 C445.32,274.14 443.51,272.00 443.09,272.00 C442.67,272.00 441.82,270.90 441.21,269.55 C440.45,267.90 438.96,266.90 436.58,266.45 C434.65,266.09 432.55,265.16 431.91,264.40 C431.16,263.48 428.67,263.00 424.73,263.00 C419.92,263.00 417.27,263.69 411.56,266.44 C404.80,269.69 404.22,270.24 401.20,276.25 C395.66,287.27 397.03,297.46 405.31,307.00 C410.97,313.51 416.14,315.72 426.18,315.90 C431.46,315.99 432.05,315.76 434.68,312.62 ZM 635.75 321.97 C639.17,320.30 642.47,317.98 643.10,316.82 C643.72,315.66 645.75,313.18 647.61,311.32 C650.87,308.06 651.00,307.64 651.00,300.28 C651.00,291.04 648.84,285.89 642.08,278.99 C637.38,274.20 635.04,273.18 626.70,272.30 C622.71,271.89 621.25,272.23 618.03,274.36 C615.90,275.77 612.89,277.23 611.33,277.61 C607.42,278.56 605.44,280.07 602.58,284.29 C600.45,287.42 600.09,289.16 599.93,297.21 C599.67,309.76 600.87,312.61 608.84,318.47 C616.66,324.22 618.21,324.86 624.51,324.94 C628.16,324.98 631.23,324.17 635.75,321.97 ZM 593.96 347.52 C590.11,349.51 587.09,349.37 583.57,347.05 C573.14,340.18 578.19,326.00 591.07,326.00 C595.85,326.00 601.00,331.58 601.00,336.77 C601.00,341.26 598.41,345.22 593.96,347.52 ZM 565.77 315.00 C559.67,318.72 552.22,317.10 549.55,311.47 C547.00,306.09 547.54,302.26 551.40,298.40 C554.36,295.44 555.45,295.00 559.80,295.00 C564.26,295.00 565.12,295.37 567.90,298.53 C572.75,304.06 571.81,311.32 565.77,315.00 ZM 373.01 339.33 C364.05,344.63 352.99,336.66 355.88,327.00 C357.47,321.71 361.13,319.00 366.70,319.00 C372.17,319.00 374.54,320.21 376.49,323.98 C379.46,329.73 377.95,336.42 373.01,339.33 ZM 490.70 305.04 C486.91,307.35 484.59,307.42 480.40,305.33 C469.65,299.96 473.16,285.64 485.57,284.24 C489.38,283.81 490.27,284.11 492.88,286.72 C498.64,292.49 497.65,300.80 490.70,305.04 ZM 481.03 254.35 C479.67,255.26 477.19,256.00 475.53,256.00 C471.98,255.99 466.58,252.96 465.06,250.12 C462.65,245.61 464.80,237.25 468.94,235.03 C470.00,234.46 473.11,234.00 475.85,234.00 C480.18,234.00 481.16,234.40 483.41,237.08 C485.40,239.44 486.00,241.25 486.00,244.89 C486.00,249.88 485.06,251.67 481.03,254.35 ZM 444.60 343.60 C441.90,346.30 440.41,347.00 437.35,346.99 C432.26,346.97 429.03,345.22 426.70,341.22 C422.57,334.16 427.84,325.59 436.57,325.14 C440.56,324.93 441.52,325.32 444.55,328.35 C447.39,331.19 448.00,332.55 448.00,336.00 C448.00,339.44 447.39,340.81 444.60,343.60 ZM 686.07 341.30 C678.47,345.79 669.00,340.31 669.00,331.44 C669.00,328.63 669.78,327.02 672.40,324.40 C675.35,321.45 676.45,321.00 680.65,321.03 C686.40,321.07 689.19,323.02 690.89,328.17 C692.43,332.82 690.21,338.85 686.07,341.30 ZM 516.78 334.44 C513.03,337.07 507.56,336.43 503.53,332.90 C500.48,330.21 500.00,329.19 500.00,325.33 C500.00,322.88 500.46,320.00 501.03,318.94 C503.26,314.78 512.41,312.54 517.06,315.03 C519.50,316.34 522.00,321.13 522.00,324.50 C522.00,327.88 519.59,332.47 516.78,334.44 ZM 583.44 272.85 C579.56,274.61 575.64,274.23 571.91,271.72 C567.69,268.87 566.33,265.29 567.57,260.31 C569.85,251.15 583.36,248.98 587.55,257.10 C590.76,263.31 588.92,270.35 583.44,272.85 ZM 367.56 337.01 C373.29,336.98 375.82,329.37 371.93,323.90 C369.39,320.34 368.49,320.31 362.51,323.65 C357.82,326.27 357.78,326.34 358.26,330.65 C358.86,335.96 360.63,338.34 363.43,337.58 C364.57,337.28 366.43,337.02 367.56,337.01 ZM 491.23 300.15 C493.57,295.65 493.65,295.06 492.33,291.93 C489.82,285.97 486.75,285.50 480.94,290.17 C475.39,294.63 475.59,297.53 481.77,301.69 C484.37,303.44 487.00,304.90 487.61,304.94 C488.22,304.97 489.85,302.82 491.23,300.15 ZM 565.00 311.00 C566.23,309.77 567.00,307.67 567.00,305.52 C567.00,302.33 566.56,301.81 561.92,299.46 C556.30,296.61 555.11,296.94 552.43,302.13 C550.43,306.01 550.63,307.72 553.45,310.55 C556.56,313.66 562.13,313.87 565.00,311.00 ZM 481.47 250.03 C482.36,249.29 482.97,247.24 482.93,245.13 C482.81,239.07 482.16,238.33 475.99,237.27 C472.06,236.60 468.00,240.34 468.00,244.64 C468.00,250.81 469.48,252.30 475.07,251.77 C477.74,251.51 480.62,250.73 481.47,250.03 ZM 442.25 342.40 C444.85,341.61 444.67,333.67 441.99,330.99 C440.35,329.35 439.20,329.10 435.74,329.63 C433.41,329.98 430.97,330.69 430.31,331.21 C428.53,332.61 427.79,337.32 428.90,340.23 C429.78,342.54 430.43,342.81 435.19,342.87 C438.11,342.90 441.29,342.69 442.25,342.40 ZM 596.60 342.47 C596.90,341.27 597.00,338.75 596.82,336.89 C596.57,334.18 595.78,333.12 592.94,331.59 C590.67,330.38 588.47,329.92 586.86,330.32 C583.96,331.05 580.37,336.91 581.31,339.36 C583.25,344.41 595.48,346.90 596.60,342.47 ZM 685.93 335.79 C689.36,331.12 689.41,329.66 686.17,329.18 C684.62,328.95 684.00,328.16 684.00,326.41 C684.00,324.68 683.22,323.66 681.38,322.95 C678.16,321.73 676.00,323.20 676.00,326.62 C676.00,327.93 675.57,329.00 675.04,329.00 C674.50,329.00 673.66,329.79 673.15,330.75 C672.49,332.02 672.90,333.54 674.63,336.25 C678.07,341.63 681.74,341.47 685.93,335.79 ZM 510.53 330.96 C511.54,329.85 512.85,329.11 513.44,329.33 C514.02,329.56 515.51,329.36 516.75,328.90 C519.82,327.76 519.67,323.95 516.41,320.08 C513.10,316.14 509.75,316.09 505.92,319.92 C501.84,324.01 501.88,330.70 506.00,332.27 C508.37,333.18 508.59,333.11 510.53,330.96 ZM 582.04 268.98 C585.17,267.30 586.34,264.23 585.04,261.10 C583.96,258.48 579.40,255.00 577.06,255.00 C575.68,255.00 569.00,261.56 569.00,262.92 C569.00,263.46 570.46,265.27 572.25,266.94 C575.61,270.10 578.74,270.74 582.04,268.98 ZM 392.08 243.65 C388.12,246.06 381.08,250.91 373.00,256.86 C359.21,267.00 337.41,288.60 327.44,302.01 C337.59,288.36 359.19,267.00 373.64,256.33 C383.45,249.08 385.61,247.05 384.88,245.75 C383.69,243.62 385.38,242.60 387.71,244.03 C388.70,244.65 389.80,244.62 392.08,243.65 ZM 569.52 607.04 C569.19,606.49 569.59,604.80 570.42,603.27 L 571.92 600.50 L 571.96 603.69 C572.00,606.95 570.63,608.83 569.52,607.04 ZM 506.68 257.60 C506.05,255.97 506.89,254.81 508.14,255.59 C509.28,256.29 509.25,259.00 508.11,259.00 C507.62,259.00 506.97,258.37 506.68,257.60 ZM 688.00 479.00 C688.00,478.45 688.67,478.00 689.50,478.00 C690.33,478.00 691.00,478.45 691.00,479.00 C691.00,479.55 690.33,480.00 689.50,480.00 C688.67,480.00 688.00,479.55 688.00,479.00 ZM 317.25 638.82 C310.86,634.21 306.50,628.41 303.92,620.97 C304.77,623.20 305.83,625.40 307.15,627.72 C309.45,631.78 313.05,635.65 317.25,638.82 Z" fill="rgb(63,30,18)" data-index="1"></path>
<path d="M 563.02 610.93 L 563.00 610.10 L 562.50 592.50 L 557.75 592.20 L 553.00 591.89 L 553.00 608.51 C553.00,618.43 552.88,623.20 552.00,626.32 L 552.00 589.00 L 563.00 589.00 L 563.00 606.93 C563.00,608.29 563.01,609.62 563.02,610.93 ZM 596.96 628.89 C596.75,628.52 596.59,628.15 596.50,627.78 C596.19,626.53 595.84,617.95 595.72,608.71 C595.54,595.05 595.22,591.75 594.00,590.98 C592.09,589.77 587.70,589.71 588.44,590.90 C588.74,591.39 588.35,592.04 587.56,592.34 C586.77,592.64 585.91,592.35 585.64,591.69 C585.38,591.04 585.12,598.76 585.08,608.85 L 585.00 627.20 L 585.00 589.00 L 595.62 589.00 L 595.81 608.07 C595.92,618.36 596.41,627.23 596.96,628.89 ZM 575.15 633.99 C573.27,634.16 571.28,633.68 569.13,632.57 C567.01,631.47 565.70,630.68 564.85,628.97 C566.88,631.69 571.26,633.99 574.85,634.00 C574.95,634.00 575.05,633.99 575.15,633.99 ZM 540.61 633.74 C537.01,633.31 533.42,631.66 532.08,629.15 C533.16,631.17 536.86,633.07 540.61,633.74 ZM 550.06 630.16 C549.66,630.67 549.21,631.19 548.70,631.75 C548.53,631.94 548.34,632.11 548.13,632.28 C548.55,631.90 548.96,631.45 549.41,630.92 ZM 610.04 633.58 C611.34,633.13 612.57,632.33 613.89,631.10 C612.55,632.35 611.35,633.14 610.04,633.58 ZM 607.02 634.00 C606.26,633.98 605.48,633.89 604.69,633.71 C605.47,633.88 606.26,633.97 607.02,634.00 Z" fill="rgb(194,126,77)" data-index="2"></path>
<path d="M 395.50 242.01 C395.61,241.95 395.72,241.89 395.83,241.83 C397.13,241.26 400.75,239.34 404.77,237.08 C409.57,234.38 415.98,231.20 419.00,230.04 C422.02,228.87 425.98,227.22 427.79,226.39 C438.24,221.56 459.97,215.92 478.12,213.33 C496.52,210.71 531.04,210.98 548.38,213.89 C555.47,215.08 561.67,216.30 562.16,216.60 C562.65,216.90 564.34,217.32 565.92,217.51 C587.94,220.30 635.68,243.10 655.60,260.34 C656.64,261.25 659.46,263.68 661.86,265.74 C666.72,269.94 683.10,286.09 687.06,290.59 C689.74,293.63 697.77,304.11 699.50,306.82 C700.05,307.69 701.22,309.21 702.10,310.22 C702.98,311.23 706.55,317.07 710.03,323.21 C716.59,334.77 721.40,349.20 720.79,355.50 L 720.50 358.50 L 511.25 358.74 L 305.84 358.97 L 312.72 358.78 L 323.45 358.50 L 324.14 354.50 C325.67,345.74 328.09,336.37 330.08,331.50 C330.75,329.85 331.42,327.96 331.56,327.30 C331.80,326.16 333.40,322.60 340.10,308.38 C348.97,289.52 374.39,259.05 391.25,247.04 C395.40,244.09 397.04,242.12 395.50,242.01 ZM 563.02 610.93 C563.12,619.18 563.51,626.22 563.98,627.43 C564.17,627.95 564.47,628.47 564.85,628.97 C565.70,630.68 567.01,631.47 569.13,632.57 C571.28,633.68 573.27,634.16 575.15,633.99 C577.47,633.92 579.19,633.01 581.60,630.60 L 585.00 627.20 L 585.08 608.85 C585.12,598.76 585.38,591.04 585.64,591.69 C585.91,592.35 586.77,592.64 587.56,592.34 C588.35,592.04 588.74,591.39 588.44,590.90 C587.70,589.71 592.09,589.77 594.00,590.98 C595.22,591.75 595.54,595.05 595.72,608.71 C595.84,617.95 596.19,626.53 596.50,627.78 C596.59,628.15 596.75,628.52 596.96,628.89 C596.99,628.96 597.01,629.02 597.03,629.06 C598.15,631.15 601.36,633.02 604.69,633.71 C605.48,633.89 606.26,633.98 607.02,634.00 C607.13,634.00 607.24,634.00 607.34,634.00 C608.30,634.00 609.19,633.86 610.04,633.58 C611.35,633.14 612.55,632.35 613.89,631.10 L 617.00 628.20 L 617.02 610.35 C617.02,600.53 617.39,591.93 617.83,591.24 C618.46,590.25 629.58,590.04 670.06,590.24 L 721.50 590.50 L 721.49 603.50 C721.47,619.15 720.09,624.01 713.23,632.51 C709.57,637.04 706.72,639.29 700.65,642.43 L 692.80 646.50 L 514.15 646.66 C439.55,646.72 377.62,646.57 348.91,646.29 C348.21,645.00 343.44,641.00 342.48,641.00 C340.05,641.00 329.84,629.06 326.12,621.87 L 322.18 614.23 L 322.34 602.12 L 322.50 590.00 L 415.39 590.00 C518.78,590.00 529.84,590.15 530.39,591.58 C530.73,592.45 531.00,600.81 531.00,610.15 C531.00,620.40 531.43,627.93 532.08,629.15 C533.16,631.17 536.86,633.07 540.61,633.74 C541.54,633.91 542.48,634.00 543.38,634.00 C545.40,634.00 546.73,633.56 548.13,632.28 C548.34,632.11 548.53,631.94 548.70,631.75 C549.21,631.19 549.66,630.67 550.06,630.16 L 552.00 627.85 L 552.00 626.32 C552.88,623.20 553.00,618.43 553.00,608.51 L 553.00 591.89 L 557.75 592.20 L 562.50 592.50 L 563.00 610.10 ZM 540.50 277.96 C547.27,275.02 552.37,270.59 555.48,264.92 C558.15,260.09 558.47,258.58 558.44,251.00 C558.42,243.80 558.02,241.73 555.79,237.44 C552.79,231.67 546.48,225.55 541.14,223.22 C538.87,222.23 534.49,221.61 529.50,221.58 C522.71,221.53 520.75,221.92 516.50,224.18 C510.07,227.59 504.69,233.20 501.82,239.50 C498.86,246.00 498.84,256.42 501.78,263.00 C508.26,277.52 525.86,284.32 540.50,277.96 ZM 638.01 325.22 C643.37,322.91 649.42,316.52 652.31,310.12 C655.39,303.31 655.26,292.16 652.02,285.51 C647.10,275.42 636.95,269.00 625.89,269.00 C613.76,269.00 603.24,275.62 598.47,286.26 C596.16,291.40 595.85,293.23 596.17,299.85 C596.41,304.77 597.21,308.75 598.40,311.00 C599.42,312.92 600.73,315.40 601.30,316.50 C602.91,319.60 607.63,323.06 613.83,325.69 C618.54,327.68 620.68,328.01 626.50,327.63 C630.35,327.38 635.53,326.29 638.01,325.22 ZM 437.15 315.29 C447.26,310.86 452.09,303.51 452.77,291.50 C453.38,280.61 452.01,276.27 445.83,269.51 C438.80,261.81 434.69,260.00 424.28,260.00 C417.44,260.00 415.07,260.44 411.17,262.41 C398.90,268.63 392.01,282.55 395.02,295.07 C397.32,304.67 400.92,309.52 409.41,314.50 C417.76,319.40 427.16,319.66 437.15,315.29 ZM 593.96 347.52 C598.41,345.22 601.00,341.26 601.00,336.77 C601.00,331.58 595.85,326.00 591.07,326.00 C578.19,326.00 573.14,340.18 583.57,347.05 C587.09,349.37 590.11,349.51 593.96,347.52 ZM 565.77 315.00 C571.81,311.32 572.75,304.06 567.90,298.53 C565.12,295.37 564.26,295.00 559.80,295.00 C555.45,295.00 554.36,295.44 551.40,298.40 C547.54,302.26 547.00,306.09 549.55,311.47 C552.22,317.10 559.67,318.72 565.77,315.00 ZM 373.01 339.33 C377.95,336.42 379.46,329.73 376.49,323.98 C374.54,320.21 372.17,319.00 366.70,319.00 C361.13,319.00 357.47,321.71 355.88,327.00 C352.99,336.66 364.05,344.63 373.01,339.33 ZM 490.70 305.04 C497.65,300.80 498.64,292.49 492.88,286.72 C490.27,284.11 489.38,283.81 485.57,284.24 C473.16,285.64 469.65,299.96 480.40,305.33 C484.59,307.42 486.91,307.35 490.70,305.04 ZM 481.03 254.35 C485.06,251.67 486.00,249.88 486.00,244.89 C486.00,241.25 485.40,239.44 483.41,237.08 C481.16,234.40 480.18,234.00 475.85,234.00 C473.11,234.00 470.00,234.46 468.94,235.03 C464.80,237.25 462.65,245.61 465.06,250.12 C466.58,252.96 471.98,255.99 475.53,256.00 C477.19,256.00 479.67,255.26 481.03,254.35 ZM 444.60 343.60 C447.39,340.81 448.00,339.44 448.00,336.00 C448.00,332.55 447.39,331.19 444.55,328.35 C441.52,325.32 440.56,324.93 436.57,325.14 C427.84,325.59 422.57,334.16 426.70,341.22 C429.03,345.22 432.26,346.97 437.35,346.99 C440.41,347.00 441.90,346.30 444.60,343.60 ZM 686.07 341.30 C690.21,338.85 692.43,332.82 690.89,328.17 C689.19,323.02 686.40,321.07 680.65,321.03 C676.45,321.00 675.35,321.45 672.40,324.40 C669.78,327.02 669.00,328.63 669.00,331.44 C669.00,340.31 678.47,345.79 686.07,341.30 ZM 516.78 334.44 C519.59,332.47 522.00,327.88 522.00,324.50 C522.00,321.13 519.50,316.34 517.06,315.03 C512.41,312.54 503.26,314.78 501.03,318.94 C500.46,320.00 500.00,322.88 500.00,325.33 C500.00,329.19 500.48,330.21 503.53,332.90 C507.56,336.43 513.03,337.07 516.78,334.44 ZM 583.44 272.85 C588.92,270.35 590.76,263.31 587.55,257.10 C583.36,248.98 569.85,251.15 567.57,260.31 C566.33,265.29 567.69,268.87 571.91,271.72 C575.64,274.23 579.56,274.61 583.44,272.85 ZM 307.21 336.40 C303.91,344.19 302.05,351.09 302.01,356.25 C302.04,351.10 303.91,344.20 307.21,336.40 ZM 331.75 645.91 C331.79,645.92 331.83,645.93 331.87,645.94 C331.81,645.94 331.77,645.93 331.75,645.92 C330.39,645.60 329.03,645.17 327.67,644.66 L 327.65 644.65 C329.01,645.17 330.39,645.59 331.75,645.91 Z" fill="rgb(228,138,71)" data-index="3"></path>
<path d="M 503.03 450.83 C509.44,452.23 516.14,452.18 522.78,450.55 C529.24,448.97 534.79,446.02 540.25,441.15 C538.58,442.71 537.01,444.03 535.86,444.81 C533.18,446.64 531.00,448.27 531.00,448.45 C531.00,448.92 537.16,446.63 539.66,445.23 C540.85,444.57 542.79,442.45 543.98,440.54 C545.16,438.62 546.50,437.15 546.95,437.27 C547.40,437.40 549.36,435.87 551.30,433.88 C557.59,427.45 562.44,425.42 571.00,425.63 C575.12,425.72 581.82,426.74 585.88,427.88 C592.20,429.65 593.89,430.63 597.59,434.65 C599.96,437.23 602.40,440.54 603.00,442.01 C604.08,444.61 608.43,447.08 614.25,448.41 C615.76,448.76 617.00,449.46 617.00,449.98 C617.00,451.42 620.52,453.01 624.74,453.47 C638.23,454.97 646.79,454.99 649.59,453.53 C651.19,452.70 653.29,452.01 654.25,452.01 C655.21,452.00 657.68,450.49 659.75,448.65 C661.81,446.80 664.68,445.01 666.13,444.66 C667.58,444.31 669.03,443.23 669.35,442.26 C669.96,440.44 672.44,436.03 675.28,431.70 C676.37,430.03 678.15,429.04 680.70,428.67 C687.12,427.73 691.28,426.99 696.72,425.82 C700.83,424.94 702.26,424.97 703.49,425.99 C704.57,426.89 706.79,427.10 710.78,426.68 C713.93,426.35 717.19,426.50 718.01,427.00 C719.22,427.75 719.59,431.62 720.00,447.71 C720.28,458.89 720.08,469.33 719.53,471.70 C718.64,475.57 718.29,475.93 715.03,476.20 C707.57,476.83 704.20,475.92 700.79,472.37 C698.98,470.48 695.92,467.95 694.00,466.75 C692.08,465.55 689.63,463.76 688.56,462.78 C687.50,461.80 685.78,461.00 684.75,461.00 C681.75,461.00 679.02,459.12 679.64,457.49 C680.11,456.28 679.41,456.09 675.86,456.47 C673.46,456.73 667.74,457.19 663.14,457.50 C658.25,457.83 653.47,458.76 651.64,459.74 C649.91,460.66 648.28,461.44 648.00,461.47 C647.72,461.49 645.76,462.35 643.62,463.36 C641.49,464.38 639.02,465.36 638.12,465.53 C637.23,465.70 636.39,465.88 636.25,465.92 C636.11,465.97 635.66,466.07 635.25,466.15 C634.84,466.23 633.76,467.51 632.85,469.01 C628.85,475.58 618.60,479.02 614.27,475.24 C613.04,474.17 612.33,473.01 612.68,472.65 C613.04,472.29 612.82,472.00 612.20,472.00 C611.58,472.00 609.69,470.65 608.00,469.00 C606.31,467.35 603.90,466.00 602.63,466.00 C601.08,466.00 599.54,464.78 597.87,462.25 C595.77,459.05 594.94,458.54 592.18,458.76 C590.41,458.90 587.85,458.29 586.49,457.40 C584.52,456.11 582.42,455.91 575.77,456.39 C555.33,457.88 556.65,457.46 550.39,464.58 C547.30,468.10 544.38,470.73 543.89,470.43 C543.40,470.13 543.00,470.47 543.00,471.19 C542.99,472.81 535.48,476.00 531.66,476.00 C530.11,476.00 526.15,474.42 522.86,472.50 C518.37,469.86 515.75,469.00 512.26,469.00 C508.92,469.00 505.74,469.98 500.87,472.50 C491.02,477.60 489.38,477.33 479.67,469.00 C474.29,464.40 469.79,461.44 466.50,460.36 C463.75,459.45 460.61,458.10 459.53,457.36 C456.76,455.46 442.96,455.57 438.26,457.53 C436.24,458.38 433.45,458.82 432.05,458.52 C430.19,458.11 428.75,458.66 426.75,460.52 C425.24,461.93 424.00,463.59 424.00,464.21 C424.00,464.83 423.72,465.05 423.37,464.70 C422.47,463.80 418.85,465.92 416.76,468.58 C415.78,469.83 413.68,471.13 412.09,471.48 C410.51,471.83 408.42,472.99 407.45,474.06 C406.27,475.36 404.38,476.00 401.73,476.00 C398.38,476.00 397.20,475.38 394.09,471.97 C392.06,469.76 388.99,467.17 387.25,466.22 C385.52,465.28 382.06,463.06 379.56,461.29 C373.83,457.24 370.22,456.35 356.25,455.54 L 345.01 454.89 L 343.84 457.45 C343.09,459.11 341.40,460.36 339.09,460.99 C336.84,461.60 332.72,464.59 328.07,468.98 C321.82,474.89 320.09,476.00 317.19,476.00 C315.29,476.00 311.95,476.54 309.76,477.19 C306.18,478.26 305.68,478.19 304.66,476.44 C303.07,473.74 303.03,473.05 302.86,449.69 C302.78,437.07 303.11,428.49 303.71,427.89 C304.26,427.34 305.56,426.91 306.60,426.92 C333.67,427.18 339.71,427.58 342.29,429.27 C343.85,430.30 345.00,431.96 345.00,433.21 C345.00,435.64 348.65,440.00 350.68,440.00 C351.41,440.00 352.96,441.09 354.12,442.42 C355.27,443.75 357.24,445.09 358.49,445.41 C359.73,445.72 361.48,447.09 362.37,448.45 C363.34,449.92 365.67,451.37 368.13,452.04 C370.41,452.65 374.01,454.30 376.15,455.72 C379.82,458.15 380.13,458.19 381.91,456.58 C382.98,455.61 385.95,454.72 388.79,454.50 C398.02,453.82 411.57,448.86 414.16,445.22 C414.89,444.18 417.30,442.13 419.50,440.67 C421.70,439.21 425.08,435.77 427.00,433.02 C431.07,427.22 433.21,426.38 440.30,427.79 C443.16,428.35 445.95,428.46 446.50,428.03 C447.05,427.60 450.20,427.02 453.50,426.74 C459.03,426.27 459.89,426.49 464.50,429.54 C467.25,431.36 472.88,436.29 477.00,440.50 C488.68,452.42 493.94,454.40 513.40,454.16 C521.42,454.06 524.94,453.61 526.69,452.47 C530.56,449.93 528.42,449.08 522.25,450.71 C516.04,452.35 509.44,452.32 503.03,450.83 ZM 587.18 546.33 C580.51,549.15 579.45,549.26 571.47,547.92 C564.15,546.70 558.05,543.68 553.55,539.06 C551.37,536.83 548.76,535.00 547.73,535.00 C546.71,535.00 545.11,534.60 544.18,534.11 C541.32,532.60 534.00,532.19 530.28,533.33 C528.34,533.93 524.85,536.31 522.53,538.63 C520.21,540.94 516.64,543.54 514.60,544.39 C511.01,545.89 510.73,545.86 506.69,543.36 C504.39,541.93 500.92,539.30 499.00,537.52 C497.08,535.73 493.97,533.76 492.10,533.13 C488.07,531.79 482.34,531.65 481.58,532.87 C481.28,533.35 479.77,534.00 478.22,534.31 C476.67,534.62 472.65,536.89 469.31,539.35 C459.08,546.88 457.48,547.49 448.00,547.44 C438.54,547.40 434.28,545.86 425.77,539.42 C421.46,536.16 413.73,532.55 408.39,531.31 C405.72,530.69 399.21,533.98 396.21,537.46 C394.60,539.32 393.33,539.92 391.96,539.49 C390.51,539.03 389.77,539.47 389.11,541.22 C388.03,544.06 380.30,546.77 370.69,547.66 C363.49,548.34 356.83,546.46 351.50,542.26 C349.85,540.96 346.54,538.34 344.16,536.45 C340.25,533.35 339.18,533.00 333.55,533.00 C326.36,533.00 321.07,534.54 319.18,537.19 C318.46,538.20 316.36,539.66 314.52,540.43 C312.68,541.20 310.16,542.84 308.92,544.08 C307.02,545.98 305.04,546.47 296.23,547.20 C286.89,547.99 285.36,547.88 281.65,546.15 C279.37,545.08 276.26,543.93 274.75,543.59 C273.24,543.24 272.00,542.52 272.00,541.97 C272.00,541.43 270.87,540.00 269.48,538.79 C268.09,537.59 265.86,534.74 264.53,532.46 C261.72,527.66 262.03,524.84 265.82,520.75 C269.87,516.39 273.71,516.98 280.60,523.00 C285.69,527.46 286.81,528.00 290.91,527.98 C298.19,527.95 308.30,525.49 309.47,523.47 C311.44,520.07 313.99,518.59 322.72,515.77 C331.62,512.90 332.96,512.85 341.00,515.08 C345.55,516.34 348.03,517.89 354.88,523.71 C360.15,528.19 362.45,528.84 371.01,528.26 C377.62,527.81 378.98,527.35 382.61,524.42 C384.87,522.59 390.08,519.50 394.19,517.55 C400.56,514.53 402.72,514.00 408.71,514.00 C417.28,514.00 424.95,517.12 432.48,523.67 C437.41,527.95 437.55,528.00 444.98,528.00 C450.99,527.99 453.20,527.55 456.00,525.80 C457.92,524.59 461.52,522.56 464.00,521.29 C466.48,520.02 469.95,518.06 471.72,516.92 C474.23,515.31 476.97,514.78 484.22,514.49 C492.44,514.17 494.10,514.41 498.75,516.59 C501.63,517.95 505.63,520.17 507.64,521.53 C512.38,524.75 514.01,524.65 517.56,520.91 C519.18,519.21 522.17,516.96 524.21,515.91 C531.78,512.01 550.56,514.38 556.50,519.98 C558.15,521.53 561.73,524.20 564.45,525.90 C568.69,528.56 570.33,529.00 576.06,529.00 C576.25,529.00 576.45,529.00 576.63,529.00 C578.73,529.00 580.13,529.00 581.47,528.72 C584.28,528.12 586.82,526.27 594.98,520.53 C601.67,515.81 607.37,514.00 615.53,514.00 C624.88,514.00 633.49,517.75 641.80,525.44 C644.96,528.36 645.44,528.48 652.80,528.23 C657.04,528.08 661.85,527.43 663.50,526.79 C667.05,525.39 677.00,518.13 677.00,516.93 C677.00,516.47 678.69,515.83 680.75,515.52 C682.81,515.20 685.85,514.52 687.50,514.00 C689.79,513.27 692.50,513.61 699.00,515.42 C710.02,518.50 710.82,518.85 711.48,520.93 C712.04,522.70 713.11,523.35 720.74,526.53 C724.14,527.95 726.51,528.17 732.70,527.64 C737.72,527.22 740.70,526.50 741.21,525.59 C741.64,524.82 744.23,522.58 746.97,520.61 C753.19,516.15 755.95,516.78 759.15,523.36 C761.28,527.75 761.28,527.80 759.40,532.39 C758.35,534.93 756.79,537.24 755.93,537.52 C755.07,537.79 753.37,539.37 752.15,541.01 C750.83,542.79 749.03,544.00 747.68,544.00 C746.44,544.00 743.64,544.92 741.46,546.05 C738.03,547.83 736.43,548.02 729.50,547.44 C720.32,546.68 715.75,545.07 711.50,541.09 C709.85,539.55 705.77,536.81 702.42,535.01 C696.66,531.90 696.00,531.77 689.53,532.46 C684.58,532.99 682.12,533.78 680.52,535.34 C671.50,544.18 665.77,547.01 655.53,547.66 C644.97,548.33 639.99,546.40 629.94,537.73 C629.09,536.99 625.63,535.36 622.25,534.09 L 616.11 531.80 L 609.29 533.91 C605.25,535.16 601.96,536.83 601.23,538.01 C600.54,539.10 599.45,540.00 598.81,540.00 C598.16,540.00 596.70,540.82 595.56,541.83 C594.43,542.84 590.66,544.86 587.18,546.33 Z" fill="rgb(249,181,82)" data-index="4"></path>

<path d="M 302.75 479.37 C301.14,478.89 301.00,476.68 301.00,451.43 L 301.00 424.00 L 320.55 424.00 C335.42,424.00 340.75,424.34 342.83,425.41 C344.33,426.19 348.82,430.44 352.81,434.85 C363.31,446.48 374.32,452.02 386.93,451.99 C400.02,451.96 410.09,447.00 420.63,435.38 C424.72,430.88 429.58,426.48 431.44,425.60 C434.04,424.36 438.10,424.00 449.44,424.00 C466.98,424.00 469.10,424.77 476.39,433.87 C483.55,442.79 492.91,448.62 503.03,450.83 C509.44,452.32 516.04,452.35 522.25,450.71 C528.42,449.08 530.56,449.93 526.69,452.47 C524.94,453.61 521.42,454.06 513.40,454.16 C493.94,454.40 488.68,452.42 477.00,440.50 C472.88,436.29 467.25,431.36 464.50,429.54 C459.89,426.49 459.03,426.27 453.50,426.74 C450.20,427.02 447.05,427.60 446.50,428.03 C445.95,428.46 443.16,428.35 440.30,427.79 C433.21,426.38 431.07,427.22 427.00,433.02 C425.08,435.77 421.70,439.21 419.50,440.67 C417.30,442.13 414.89,444.18 414.16,445.22 C411.57,448.86 398.02,453.82 388.79,454.50 C385.95,454.72 382.98,455.61 381.91,456.58 C380.13,458.19 379.82,458.15 376.15,455.72 C374.01,454.30 370.41,452.65 368.13,452.04 C365.67,451.37 363.34,449.92 362.37,448.45 C361.48,447.09 359.73,445.72 358.49,445.41 C357.24,445.09 355.27,443.75 354.12,442.42 C352.96,441.09 351.41,440.00 350.68,440.00 C348.65,440.00 345.00,435.64 345.00,433.21 C345.00,431.96 343.85,430.30 342.29,429.27 C339.71,427.58 333.67,427.18 306.60,426.92 C305.56,426.91 304.26,427.34 303.71,427.89 C303.11,428.49 302.78,437.07 302.86,449.69 C303.03,473.05 303.07,473.74 304.66,476.44 C305.68,478.19 306.18,478.26 309.76,477.19 C311.95,476.54 315.29,476.00 317.19,476.00 C320.09,476.00 321.82,474.89 328.07,468.98 C332.72,464.59 336.84,461.60 339.09,460.99 C341.40,460.36 343.09,459.11 343.84,457.45 L 345.01 454.89 L 356.25 455.54 C370.22,456.35 373.83,457.24 379.56,461.29 C382.06,463.06 385.52,465.28 387.25,466.22 C388.99,467.17 392.06,469.76 394.09,471.97 C397.20,475.38 398.38,476.00 401.73,476.00 C404.38,476.00 406.27,475.36 407.45,474.06 C408.42,472.99 410.51,471.83 412.09,471.48 C413.68,471.13 415.78,469.83 416.76,468.58 C418.85,465.92 422.47,463.80 423.37,464.70 C423.72,465.05 424.00,464.83 424.00,464.21 C424.00,463.59 425.24,461.93 426.75,460.52 C428.75,458.66 430.19,458.11 432.05,458.52 C433.45,458.82 436.24,458.38 438.26,457.53 C442.96,455.57 456.76,455.46 459.53,457.36 C460.61,458.10 463.75,459.45 466.50,460.36 C469.79,461.44 474.29,464.40 479.67,469.00 C489.38,477.33 491.02,477.60 500.87,472.50 C505.74,469.98 508.92,469.00 512.26,469.00 C515.75,469.00 518.37,469.86 522.86,472.50 C526.15,474.42 530.11,476.00 531.66,476.00 C535.48,476.00 542.99,472.81 543.00,471.19 C543.00,470.47 543.40,470.13 543.89,470.43 C544.38,470.73 547.30,468.10 550.39,464.58 C556.65,457.46 555.33,457.88 575.77,456.39 C582.42,455.91 584.52,456.11 586.49,457.40 C587.85,458.29 590.41,458.90 592.18,458.76 C594.94,458.54 595.77,459.05 597.87,462.25 C599.54,464.78 601.08,466.00 602.63,466.00 C603.90,466.00 606.31,467.35 608.00,469.00 C609.69,470.65 611.58,472.00 612.20,472.00 C612.82,472.00 613.04,472.29 612.68,472.65 C612.33,473.01 613.04,474.17 614.27,475.24 C618.60,479.02 628.85,475.58 632.85,469.01 C633.76,467.51 634.84,466.23 635.25,466.15 C635.66,466.07 636.11,465.97 636.25,465.92 C636.39,465.88 637.23,465.70 638.12,465.53 C639.02,465.36 641.49,464.38 643.62,463.36 C645.76,462.35 647.72,461.49 648.00,461.47 C648.28,461.44 649.91,460.66 651.64,459.74 C653.47,458.76 658.25,457.83 663.14,457.50 C667.74,457.19 673.46,456.73 675.86,456.47 C679.41,456.09 680.11,456.28 679.64,457.49 C679.02,459.12 681.75,461.00 684.75,461.00 C685.78,461.00 687.50,461.80 688.56,462.78 C689.63,463.76 692.08,465.55 694.00,466.75 C695.92,467.95 698.98,470.48 700.79,472.37 C704.20,475.92 707.57,476.83 715.03,476.20 C718.29,475.93 718.64,475.57 719.53,471.70 C720.08,469.33 720.28,458.89 720.00,447.71 C719.59,431.62 719.22,427.75 718.01,427.00 C717.19,426.50 713.93,426.35 710.78,426.68 C706.79,427.10 704.57,426.89 703.49,425.99 C702.26,424.97 700.83,424.94 696.72,425.82 C691.28,426.99 687.12,427.73 680.70,428.67 C678.15,429.04 676.37,430.03 675.28,431.70 C672.44,436.03 669.96,440.44 669.35,442.26 C669.03,443.23 667.58,444.31 666.13,444.66 C664.68,445.01 661.81,446.80 659.75,448.65 C657.68,450.49 655.21,452.00 654.25,452.01 C653.29,452.01 651.19,452.70 649.59,453.53 C646.79,454.99 638.23,454.97 624.74,453.47 C620.52,453.01 617.00,451.42 617.00,449.98 C617.00,449.46 615.76,448.76 614.25,448.41 C608.43,447.08 604.08,444.61 603.00,442.01 C602.40,440.54 599.96,437.23 597.59,434.65 C593.89,430.63 592.20,429.65 585.88,427.88 C581.82,426.74 575.12,425.72 571.00,425.63 C562.44,425.42 557.59,427.45 551.30,433.88 C549.36,435.87 547.40,437.40 546.95,437.27 C546.50,437.15 545.16,438.62 543.98,440.54 C542.79,442.45 540.85,444.57 539.66,445.23 C537.16,446.63 531.00,448.92 531.00,448.45 C531.00,448.27 533.18,446.64 535.86,444.81 C537.01,444.03 538.58,442.71 540.25,441.15 C542.43,439.22 544.58,436.98 546.78,434.41 C555.19,424.54 556.63,424.00 574.51,424.00 C591.97,424.00 594.23,424.85 601.45,434.14 C610.75,446.12 622.15,451.57 637.50,451.40 C652.07,451.23 661.57,446.52 671.04,434.76 C674.38,430.61 676.24,428.15 678.69,426.66 C682.51,424.35 687.76,424.40 702.22,424.18 L 723.00 423.86 L 723.00 478.91 L 719.75 479.49 C714.74,480.38 702.36,478.45 699.66,476.35 C698.35,475.33 694.18,471.89 690.39,468.70 C674.01,454.93 653.89,455.98 637.01,471.49 C624.66,482.84 617.40,482.90 605.25,471.73 C602.00,468.74 596.23,464.76 592.44,462.89 C586.06,459.75 584.83,459.50 576.00,459.50 C567.27,459.50 565.90,459.77 559.90,462.73 C556.30,464.50 550.31,468.63 546.60,471.91 C541.51,476.41 538.70,478.11 535.14,478.88 C528.89,480.22 523.54,478.91 519.58,475.08 C515.18,470.81 509.90,470.81 504.73,475.07 C496.15,482.15 487.34,481.02 477.09,471.53 C466.84,462.04 456.77,458.28 444.50,459.39 C435.43,460.21 427.32,464.14 418.91,471.81 C406.97,482.71 398.94,482.56 386.73,471.22 C379.81,464.78 375.64,462.38 367.94,460.41 C354.88,457.06 342.15,460.76 330.47,471.30 C327.19,474.26 323.43,477.25 322.12,477.95 C319.65,479.26 305.80,480.28 302.75,479.37 ZM 587.18 546.33 C590.66,544.86 594.43,542.84 595.56,541.83 C596.70,540.82 598.16,540.00 598.81,540.00 C599.45,540.00 600.54,539.10 601.23,538.01 C601.96,536.83 605.25,535.16 609.29,533.91 L 616.11 531.80 L 622.25 534.09 C625.63,535.36 629.09,536.99 629.94,537.73 C639.99,546.40 644.97,548.33 655.53,547.66 C665.77,547.01 671.50,544.18 680.52,535.34 C682.12,533.78 684.58,532.99 689.53,532.46 C696.00,531.77 696.66,531.90 702.42,535.01 C705.77,536.81 709.85,539.55 711.50,541.09 C715.75,545.07 720.32,546.68 729.50,547.44 C736.43,548.02 738.03,547.83 741.46,546.05 C743.64,544.92 746.44,544.00 747.68,544.00 C749.03,544.00 750.83,542.79 752.15,541.01 C753.37,539.37 755.07,537.79 755.93,537.52 C756.79,537.24 758.35,534.93 759.40,532.39 C761.28,527.80 761.28,527.75 759.15,523.36 C755.95,516.78 753.19,516.15 746.97,520.61 C744.23,522.58 741.64,524.82 741.21,525.59 C740.77,526.38 738.46,527.03 734.58,527.46 C736.88,526.73 739.16,524.90 743.13,521.22 C748.56,516.20 749.65,515.60 753.21,515.74 C755.41,515.83 758.24,516.58 759.51,517.42 C762.44,519.33 764.39,525.13 763.57,529.49 C762.57,534.82 754.72,542.73 746.55,546.65 C740.23,549.68 738.70,550.00 730.65,550.00 C722.69,550.00 721.10,549.67 715.62,546.91 C712.26,545.22 708.15,542.58 706.50,541.07 C700.92,535.92 698.81,535.00 692.70,535.00 C687.13,535.00 686.42,535.30 678.67,540.91 C667.66,548.86 664.58,550.00 654.13,549.99 C644.05,549.98 638.90,548.03 630.00,540.87 C618.64,531.73 612.87,531.62 602.55,540.39 C592.05,549.30 585.60,551.60 574.03,550.55 C569.92,550.18 566.09,549.52 565.53,549.08 C564.96,548.64 563.38,547.99 562.00,547.65 C560.62,547.31 556.45,544.56 552.72,541.55 C549.00,538.53 544.25,535.56 542.18,534.94 C536.75,533.31 530.53,535.21 526.05,539.87 C516.46,549.82 508.89,550.02 498.99,540.57 C489.12,531.16 484.35,531.65 468.83,543.72 C456.23,553.52 439.10,553.24 425.50,543.02 C413.11,533.71 409.59,532.47 403.30,535.22 C400.52,536.44 394.81,540.46 390.00,544.59 C388.62,545.77 384.60,547.70 381.06,548.87 C370.86,552.24 364.62,551.78 355.34,546.98 C351.06,544.77 346.42,541.89 345.03,540.58 C335.63,531.76 329.40,531.90 317.63,541.20 C314.87,543.38 310.37,546.30 307.63,547.69 C303.09,549.99 301.77,550.18 293.07,549.81 C285.16,549.48 282.58,548.94 278.17,546.70 C266.25,540.66 260.07,533.06 260.02,524.40 C260.02,523.78 260.05,523.20 260.11,522.67 C260.36,523.42 261.10,522.50 262.43,519.84 C263.03,518.64 263.40,517.90 263.51,517.54 C265.04,516.81 267.13,516.40 269.92,516.20 L 275.77 515.78 L 281.57 521.36 C286.10,525.71 288.28,527.07 291.51,527.55 C296.66,528.33 301.80,526.32 307.24,521.40 C309.42,519.43 313.97,516.51 317.35,514.91 C322.65,512.41 324.68,512.00 332.00,512.01 C341.57,512.02 348.05,514.34 355.46,520.42 C367.43,530.22 372.55,530.38 383.76,521.30 C386.11,519.40 390.61,516.54 393.76,514.93 C398.79,512.39 400.59,512.02 408.22,512.01 C418.40,512.00 425.10,514.40 432.85,520.85 C438.76,525.77 442.60,527.73 447.04,527.97 C446.40,527.99 445.72,528.00 444.98,528.00 C437.55,528.00 437.41,527.95 432.48,523.67 C424.95,517.12 417.28,514.00 408.71,514.00 C402.72,514.00 400.56,514.53 394.19,517.55 C390.08,519.50 384.87,522.59 382.61,524.42 C378.98,527.35 377.62,527.81 371.01,528.26 C362.45,528.84 360.15,528.19 354.88,523.71 C348.03,517.89 345.55,516.34 341.00,515.08 C332.96,512.85 331.62,512.90 322.72,515.77 C313.99,518.59 311.44,520.07 309.47,523.47 C308.30,525.49 298.19,527.95 290.91,527.98 C286.81,528.00 285.69,527.46 280.60,523.00 C273.71,516.98 269.87,516.39 265.82,520.75 C262.03,524.84 261.72,527.66 264.53,532.46 C265.86,534.74 268.09,537.59 269.48,538.79 C270.87,540.00 272.00,541.43 272.00,541.97 C272.00,542.52 273.24,543.24 274.75,543.59 C276.26,543.93 279.37,545.08 281.65,546.15 C285.36,547.88 286.89,547.99 296.23,547.20 C305.04,546.47 307.02,545.98 308.92,544.08 C310.16,542.84 312.68,541.20 314.52,540.43 C316.36,539.66 318.46,538.20 319.18,537.19 C321.07,534.54 326.36,533.00 333.55,533.00 C339.18,533.00 340.25,533.35 344.16,536.45 C346.54,538.34 349.85,540.96 351.50,542.26 C356.83,546.46 363.49,548.34 370.69,547.66 C380.30,546.77 388.03,544.06 389.11,541.22 C389.77,539.47 390.51,539.03 391.96,539.49 C393.33,539.92 394.60,539.32 396.21,537.46 C399.21,533.98 405.72,530.69 408.39,531.31 C413.73,532.55 421.46,536.16 425.77,539.42 C434.28,545.86 438.54,547.40 448.00,547.44 C457.48,547.49 459.08,546.88 469.31,539.35 C472.65,536.89 476.67,534.62 478.22,534.31 C479.77,534.00 481.28,533.35 481.58,532.87 C482.34,531.65 488.07,531.79 492.10,533.13 C493.97,533.76 497.08,535.73 499.00,537.52 C500.92,539.30 504.39,541.93 506.69,543.36 C510.73,545.86 511.01,545.89 514.60,544.39 C516.64,543.54 520.21,540.94 522.53,538.63 C524.85,536.31 528.34,533.93 530.28,533.33 C534.00,532.19 541.32,532.60 544.18,534.11 C545.11,534.60 546.71,535.00 547.73,535.00 C548.76,535.00 551.37,536.83 553.55,539.06 C558.05,543.68 564.15,546.70 571.47,547.92 C579.45,549.26 580.51,549.15 587.18,546.33 ZM 730.56 527.80 C725.90,528.09 723.72,527.77 720.74,526.53 C713.11,523.35 712.04,522.70 711.48,520.93 C710.82,518.85 710.02,518.50 699.00,515.42 C692.50,513.61 689.79,513.27 687.50,514.00 C685.85,514.52 682.81,515.20 680.75,515.52 C678.69,515.83 677.00,516.47 677.00,516.93 C677.00,518.13 667.05,525.39 663.50,526.79 C661.85,527.43 657.04,528.08 652.80,528.23 C645.44,528.48 644.96,528.36 641.80,525.44 C633.49,517.75 624.88,514.00 615.53,514.00 C607.37,514.00 601.67,515.81 594.98,520.53 C586.82,526.27 584.28,528.12 581.47,528.72 C580.13,529.00 578.73,529.00 576.63,529.00 C576.45,529.00 576.25,529.00 576.06,529.00 C570.33,529.00 568.69,528.56 564.45,525.90 C561.73,524.20 558.15,521.53 556.50,519.98 C550.56,514.38 531.78,512.01 524.21,515.91 C522.17,516.96 519.18,519.21 517.56,520.91 C514.01,524.65 512.38,524.75 507.64,521.53 C505.63,520.17 501.63,517.95 498.75,516.59 C494.10,514.41 492.44,514.17 484.22,514.49 C476.97,514.78 474.23,515.31 471.72,516.92 C469.95,518.06 466.48,520.02 464.00,521.29 C461.52,522.56 457.92,524.59 456.00,525.80 C455.57,526.07 455.15,526.31 454.73,526.52 C456.64,525.50 458.94,523.80 462.50,520.99 C471.53,513.90 476.63,512.00 486.69,512.00 C493.63,512.00 496.14,512.46 500.81,514.58 C503.94,516.00 507.72,518.32 509.21,519.73 L 511.92 522.30 L 515.21 519.79 C517.02,518.41 520.94,516.05 523.93,514.54 C529.00,511.97 530.01,511.81 539.43,512.19 C550.27,512.62 555.01,514.40 562.04,520.71 C572.58,530.17 581.14,530.29 591.61,521.10 C599.08,514.55 604.33,512.55 615.00,512.18 C623.36,511.89 625.17,512.15 630.05,514.33 C633.10,515.69 638.28,519.09 641.55,521.89 C650.08,529.19 657.55,529.92 664.27,524.11 C669.74,519.37 678.13,514.00 680.05,514.00 C681.06,514.00 682.16,513.55 682.50,513.00 C682.84,512.45 686.93,512.00 691.59,512.00 C698.47,512.00 701.23,512.49 706.28,514.61 C709.70,516.05 712.75,517.62 713.05,518.10 C714.84,520.94 724.74,526.99 728.52,527.56 C729.26,527.67 729.93,527.75 730.56,527.80 Z" fill="rgb(240,184,104)" data-index="6"></path>

</g>
</svg>